<?xml version="1.0" standalone="no"?>
<!DOCTYPE svg PUBLIC "-//W3C//DTD SVG 20010904//EN"
 "http://www.w3.org/TR/2001/REC-SVG-20010904/DTD/svg10.dtd">
<svg version="1.0" xmlns="http://www.w3.org/2000/svg"
 width="336.000000pt" height="265.000000pt" viewBox="0 0 336.000000 265.000000"
 preserveAspectRatio="xMidYMid meet">

<g transform="translate(0.000000,265.000000) scale(0.100000,-0.100000)"
fill="#000000" stroke="none">
<path d="M157 2499 c-48 -28 -47 2 -47 -1074 0 -1085 -2 -1045 52 -1073 17 -9
186 -13 688 -15 l665 -2 3 -107 3 -108 -110 0 c-78 0 -110 -4 -113 -12 -14
-37 -6 -38 394 -38 l389 0 -3 23 c-3 21 -8 22 -110 25 l-108 3 0 109 0 110
665 0 c456 0 672 3 688 11 13 6 31 23 40 39 16 26 17 113 17 1034 0 758 -3
1012 -12 1031 -26 58 65 55 -1575 55 -1006 -1 -1514 -4 -1526 -11z m3047 -55
c11 -10 16 -34 16 -75 l0 -59 -1530 0 -1530 0 0 59 c0 101 -170 91 1530 91
1349 0 1500 -2 1514 -16z m-2424 -339 c26 -31 1 -35 -256 -35 -224 0 -255 2
-261 16 -3 9 0 20 8 25 8 5 123 9 255 9 199 0 244 -3 254 -15z m2330 0 c27
-32 1 -35 -296 -35 -278 0 -294 1 -294 18 0 10 3 22 7 25 3 4 133 7 288 7 235
0 285 -2 295 -15z m-2025 -110 c0 -19 -8 -20 -279 -23 -167 -1 -284 2 -289 7
-5 5 -7 17 -4 25 6 14 39 16 289 14 275 -3 283 -4 283 -23z m1775 10 c26 -32
1 -35 -280 -35 -280 0 -299 2 -286 35 8 22 548 22 566 0z m-2133 -96 c6 -6 9
-18 6 -25 -4 -11 -49 -14 -233 -14 -229 0 -249 3 -236 35 4 13 43 15 229 15
151 0 227 -4 234 -11z m2388 -14 c0 -19 -8 -20 -229 -23 -126 -1 -233 1 -238
6 -5 5 -6 16 -2 26 6 15 28 16 238 14 223 -3 231 -4 231 -23z m-2310 -100 c0
-19 -8 -20 -264 -23 -158 -1 -269 2 -274 7 -5 5 -7 17 -4 25 6 14 38 16 274
14 260 -3 268 -4 268 -23z m2310 0 c0 -20 -8 -20 -304 -23 -183 -1 -309 2
-314 7 -5 5 -7 17 -4 25 6 15 41 16 314 14 300 -3 308 -3 308 -23z m-1345 -68
c0 -16 -151 -539 -161 -559 -11 -21 -39 -13 -39 11 0 25 150 544 162 558 11
13 38 6 38 -10z m-607 -21 c13 -33 -13 -36 -354 -36 -225 0 -340 4 -344 10 -4
6 -4 17 -1 25 8 22 691 22 699 1z m1751 5 c4 -5 3 -16 0 -25 -5 -14 -45 -16
-349 -16 -304 0 -344 2 -349 16 -3 9 -4 20 0 25 7 12 691 12 698 0z m-1877
-107 c3 -9 0 -20 -8 -25 -8 -5 -153 -8 -324 -6 l-310 2 -3 23 -3 22 321 0
c285 0 321 -2 327 -16z m1951 -6 l-3 -23 -314 -3 c-189 -1 -319 2 -324 7 -5 5
-7 17 -4 25 6 14 45 16 327 16 l321 0 -3 -22z m-1479 -2 c15 -18 9 -24 -107
-106 -50 -35 -90 -65 -89 -66 1 0 45 -32 97 -69 108 -77 115 -85 96 -104 -12
-11 -33 0 -135 73 -67 48 -121 93 -121 101 0 12 225 184 241 185 4 0 12 -6 18
-14z m502 -72 c65 -47 119 -92 119 -99 0 -8 -55 -53 -121 -100 -104 -74 -124
-85 -135 -73 -19 19 -8 31 99 107 48 34 85 67 82 72 -3 5 -49 38 -101 75 -51
36 -94 69 -94 73 0 7 21 31 28 31 2 0 57 -39 123 -86z m-1101 -24 c0 -19 -7
-20 -257 -21 -285 -1 -362 -1 -380 0 -7 1 -13 10 -13 21 0 20 7 20 325 20 318
0 325 0 325 -20z m2205 10 c20 -32 -12 -35 -329 -32 -307 2 -316 3 -316 22 0
19 8 20 319 20 211 0 322 -4 326 -10z m-2050 -110 c0 -13 -34 -15 -237 -18
-234 -2 -238 -2 -238 18 0 20 4 20 238 18 203 -3 237 -5 237 -18z m1723 3 c-3
-16 -23 -18 -232 -21 -133 -1 -234 2 -239 7 -26 26 10 31 239 31 219 0 235 -1
232 -17z m-1894 -79 c9 -3 16 -15 16 -25 0 -18 -9 -19 -144 -19 -146 0 -170 6
-146 35 10 12 40 15 135 15 68 0 130 -3 139 -6z m1856 -4 c11 -6 17 -17 14
-25 -5 -12 -32 -15 -150 -15 -133 0 -144 1 -144 18 0 10 3 22 7 25 10 11 252
8 273 -3z m-1842 -117 l3 -23 -320 0 c-212 0 -322 4 -326 10 -4 6 -4 18 -1 26
5 12 52 14 323 12 l318 -3 3 -22z m2201 18 c8 -5 11 -16 8 -25 -6 -14 -42 -16
-327 -16 -304 0 -320 1 -320 18 0 10 3 22 7 25 10 10 616 8 632 -2z m-2224
-116 c0 -20 -8 -20 -304 -23 -183 -1 -309 2 -314 7 -5 5 -7 17 -4 25 6 15 41
16 314 14 300 -3 308 -3 308 -23z m2230 0 c0 -20 -8 -20 -304 -23 -183 -1
-309 2 -314 7 -5 5 -7 17 -4 25 6 15 41 16 314 14 300 -3 308 -3 308 -23z
m-1802 -87 c12 -36 1 -38 -283 -38 -280 0 -299 2 -286 35 4 13 50 15 285 15
214 0 280 -3 284 -12z m1322 -13 c0 -19 -8 -20 -279 -23 -167 -1 -284 2 -289
7 -5 5 -7 17 -4 25 6 14 39 16 289 14 275 -3 283 -4 283 -23z m-1728 -91 c3
-9 0 -20 -8 -25 -18 -11 -610 -11 -628 0 -8 5 -11 16 -8 25 6 14 42 16 322 16
280 0 316 -2 322 -16z m2210 0 c3 -9 0 -20 -8 -25 -16 -10 -598 -13 -623 -3
-9 3 -16 15 -16 25 0 18 13 19 320 19 285 0 321 -2 327 -16z m-1877 -103 c0
-16 -9 -21 -45 -26 -72 -11 -513 -1 -526 12 -29 29 5 33 287 33 274 0 284 -1
284 -19z m1470 0 c0 -27 -25 -30 -280 -30 -257 -1 -290 3 -290 30 0 18 12 19
285 19 272 0 285 -1 285 -19z m510 -318 c0 -116 187 -103 -1531 -103 -1348 0
-1499 2 -1513 16 -12 11 -16 35 -16 85 l0 69 1530 0 1530 0 0 -67z"/>
<path d="M2777 2396 c-9 -22 19 -42 37 -26 19 15 10 40 -14 40 -10 0 -20 -6
-23 -14z"/>
<path d="M2874 2399 c-8 -14 21 -43 35 -35 19 12 13 46 -8 46 -11 0 -23 -5
-27 -11z"/>
<path d="M2974 2395 c-4 -9 -2 -21 4 -27 15 -15 44 -1 40 19 -4 23 -36 29 -44
8z"/>
</g>
</svg>
