<?xml version="1.0" standalone="no"?>
<!DOCTYPE svg PUBLIC "-//W3C//DTD SVG 20010904//EN"
 "http://www.w3.org/TR/2001/REC-SVG-20010904/DTD/svg10.dtd">
<svg version="1.0" xmlns="http://www.w3.org/2000/svg"
 width="736.000000pt" height="736.000000pt" viewBox="0 0 736.000000 736.000000"
 preserveAspectRatio="xMidYMid meet">

<g transform="translate(0.000000,736.000000) scale(0.100000,-0.100000)"
fill="#000000" stroke="none">
<path d="M3381 5924 c-658 -90 -1231 -452 -1601 -1014 -60 -92 -170 -299 -170
-320 0 -7 22 -10 58 -8 l57 3 29 55 c233 449 576 781 1019 990 177 83 359 139
572 177 140 24 528 24 670 0 702 -122 1260 -531 1591 -1167 l29 -55 58 -3 c35
-2 57 1 57 8 0 6 -24 59 -54 118 -209 415 -563 770 -982 984 -243 125 -476
197 -747 233 -146 19 -442 18 -586 -1z"/>
<path d="M3430 5645 c-358 -50 -615 -154 -940 -382 -74 -51 -213 -179 -287
-263 -103 -116 -239 -313 -228 -331 5 -8 4 -10 -3 -5 -7 4 -19 -9 -32 -34
l-20 -40 1760 0 1760 0 -20 40 c-13 25 -25 38 -32 34 -7 -5 -8 -3 -3 5 4 8
-21 55 -68 124 -89 132 -164 220 -179 211 -7 -4 -8 -2 -4 5 9 14 -12 43 -25
35 -5 -3 -8 0 -7 7 3 11 -157 160 -218 203 -346 241 -594 342 -964 392 -129
17 -362 16 -490 -1z"/>
<path d="M1020 3680 l0 -660 260 0 260 0 0 273 1 272 217 -222 c301 -307 314
-314 605 -321 l187 -4 0 661 0 661 -255 0 -255 0 0 -272 -1 -273 -222 226
c-203 208 -228 230 -297 263 -98 47 -151 56 -341 56 l-159 0 0 -660z"/>
<path d="M2670 3680 l0 -660 255 0 255 0 0 660 0 660 -255 0 -255 0 0 -660z"/>
<path d="M3300 3680 l0 -660 255 0 255 0 0 124 0 123 88 12 c48 6 112 17 143
25 30 8 61 16 69 18 8 2 47 -57 99 -149 l86 -153 293 0 c276 0 294 1 288 18
-4 9 -71 132 -150 272 -79 140 -149 265 -155 278 -11 20 -8 28 29 73 135 160
233 410 241 612 l3 62 -256 3 -256 2 -11 -74 c-26 -179 -131 -330 -288 -413
-60 -33 -157 -63 -200 -63 l-23 0 0 275 0 275 -255 0 -255 0 0 -660z"/>
<path d="M4920 3680 l0 -660 711 0 710 0 -3 193 -3 192 -513 0 -512 0 0 43 0
42 515 0 515 0 0 190 0 190 -515 0 -515 0 0 43 0 42 512 0 513 0 3 193 3 192
-710 0 -711 0 0 -660z"/>
<path d="M1610 2770 c0 -7 25 -61 56 -122 273 -534 747 -936 1324 -1124 364
-119 816 -137 1200 -49 647 149 1210 589 1506 1177 30 59 54 112 54 118 0 7
-22 10 -57 8 l-58 -3 -29 -55 c-297 -572 -795 -973 -1395 -1125 -196 -49 -281
-59 -531 -59 -250 0 -332 9 -531 59 -600 152 -1098 553 -1395 1125 l-29 55
-57 3 c-38 2 -58 -1 -58 -8z"/>
<path d="M1940 2730 c13 -25 25 -38 32 -34 7 5 8 3 3 -5 -11 -18 125 -215 228
-331 74 -84 213 -212 287 -263 205 -144 361 -227 546 -290 408 -141 880 -141
1288 0 188 64 339 145 560 299 61 43 221 192 218 203 -1 7 2 10 7 7 13 -8 34
21 25 35 -4 7 -3 9 4 5 15 -9 90 79 179 211 47 69 72 116 68 124 -5 8 -4 10 3
5 7 -4 19 9 32 34 l20 40 -1760 0 -1760 0 20 -40z m1440 -300 c-28 -56 -27
-120 5 -154 38 -41 93 -36 380 40 138 37 317 84 398 105 81 21 153 41 159 45
6 4 9 1 7 -5 -3 -7 -63 -37 -134 -67 -72 -30 -139 -59 -150 -64 -47 -22 -408
-176 -499 -212 -57 -23 -124 -42 -156 -45 -140 -13 -199 90 -132 228 22 46
120 169 134 169 5 0 -1 -18 -12 -40z"/>
</g>
</svg>
